<svg width="168" height="34" viewBox="0 0 168 34" fill="none" xmlns="http://www.w3.org/2000/svg">
<path d="M32.499 5.66543C30.7507 3.87929 28.6711 2.45948 26.3795 1.48733C24.0879 0.515168 21.6292 0.00974605 19.1443 0H18.9999C13.9608 0 9.12813 2.02468 5.56495 5.62864C2.00177 9.2326 0 14.1206 0 19.2174V29.5652C0 30.7414 0.461948 31.8694 1.28422 32.7011C2.10649 33.5328 3.22173 34 4.3846 34H7.30767C8.47053 34 9.58577 33.5328 10.408 32.7011C11.2303 31.8694 11.6923 30.7414 11.6923 29.5652V22.1739C11.6923 20.9977 11.2303 19.8697 10.408 19.038C9.58577 18.2064 8.47053 17.7391 7.30767 17.7391H2.98884C3.35347 13.699 5.19804 9.94274 8.1604 7.20767C11.1228 4.4726 14.989 2.95632 18.9999 2.95652H19.1223C23.1166 2.97359 26.9606 4.4989 29.9008 7.23349C32.841 9.96807 34.6654 13.7147 35.0165 17.7391H30.6922C29.5293 17.7391 28.4141 18.2064 27.5918 19.038C26.7695 19.8697 26.3076 20.9977 26.3076 22.1739V29.5652C26.3076 30.7414 26.7695 31.8694 27.5918 32.7011C28.4141 33.5328 29.5293 34 30.6922 34H33.6153C34.7781 34 35.8934 33.5328 36.7156 32.7011C37.5379 31.8694 37.9999 30.7414 37.9999 29.5652V19.2174C38.0094 16.7036 37.5284 14.2125 36.5844 11.887C35.6405 9.56155 34.2522 7.4473 32.499 5.66543ZM7.30767 20.6957C7.69529 20.6957 8.06703 20.8514 8.34113 21.1286C8.61522 21.4059 8.7692 21.7819 8.7692 22.1739V29.5652C8.7692 29.9573 8.61522 30.3333 8.34113 30.6105C8.06703 30.8877 7.69529 31.0435 7.30767 31.0435H4.3846C3.99698 31.0435 3.62523 30.8877 3.35114 30.6105C3.07705 30.3333 2.92307 29.9573 2.92307 29.5652V20.6957H7.30767ZM35.0768 29.5652C35.0768 29.9573 34.9228 30.3333 34.6487 30.6105C34.3746 30.8877 34.0029 31.0435 33.6153 31.0435H30.6922C30.3046 31.0435 29.9328 30.8877 29.6587 30.6105C29.3846 30.3333 29.2307 29.9573 29.2307 29.5652V22.1739C29.2307 21.7819 29.3846 21.4059 29.6587 21.1286C29.9328 20.8514 30.3046 20.6957 30.6922 20.6957H35.0768V29.5652Z" fill="#00B37E"/>
<path d="M51.288 28.192C50.84 28.192 50.496 28.064 50.256 27.808C50.016 27.552 49.896 27.2 49.896 26.752V12.328C49.896 11.864 50.024 11.512 50.28 11.272C50.536 11.016 50.888 10.888 51.336 10.888C51.736 10.888 52.048 10.968 52.272 11.128C52.512 11.272 52.728 11.528 52.92 11.896L58.848 22.864H58.08L64.008 11.896C64.2 11.528 64.408 11.272 64.632 11.128C64.856 10.968 65.168 10.888 65.568 10.888C66.016 10.888 66.36 11.016 66.6 11.272C66.84 11.512 66.96 11.864 66.96 12.328V26.752C66.96 27.2 66.84 27.552 66.6 27.808C66.376 28.064 66.032 28.192 65.568 28.192C65.12 28.192 64.776 28.064 64.536 27.808C64.296 27.552 64.176 27.2 64.176 26.752V15.64H64.704L59.664 24.832C59.504 25.104 59.336 25.304 59.16 25.432C58.984 25.56 58.744 25.624 58.44 25.624C58.136 25.624 57.888 25.56 57.696 25.432C57.504 25.288 57.336 25.088 57.192 24.832L52.104 15.616H52.68V26.752C52.68 27.2 52.56 27.552 52.32 27.808C52.096 28.064 51.752 28.192 51.288 28.192ZM74.6439 28.24C73.6679 28.24 72.8599 28.064 72.2199 27.712C71.5799 27.344 71.0999 26.8 70.7799 26.08C70.4759 25.36 70.3239 24.464 70.3239 23.392V17.584C70.3239 17.072 70.4519 16.696 70.7079 16.456C70.9639 16.2 71.3319 16.072 71.8119 16.072C72.2919 16.072 72.6599 16.2 72.9159 16.456C73.1879 16.696 73.3239 17.072 73.3239 17.584V23.44C73.3239 24.272 73.4919 24.888 73.8279 25.288C74.1639 25.688 74.6999 25.888 75.4359 25.888C76.2359 25.888 76.8919 25.616 77.4039 25.072C77.9159 24.512 78.1719 23.776 78.1719 22.864V17.584C78.1719 17.072 78.2999 16.696 78.5559 16.456C78.8119 16.2 79.1799 16.072 79.6599 16.072C80.1399 16.072 80.5079 16.2 80.7639 16.456C81.0359 16.696 81.1719 17.072 81.1719 17.584V26.656C81.1719 27.68 80.6839 28.192 79.7079 28.192C79.2439 28.192 78.8839 28.064 78.6279 27.808C78.3719 27.536 78.2439 27.152 78.2439 26.656V24.832L78.5799 25.552C78.2439 26.416 77.7319 27.08 77.0439 27.544C76.3719 28.008 75.5719 28.24 74.6439 28.24ZM88.5904 28.24C87.9024 28.24 87.1744 28.168 86.4064 28.024C85.6384 27.88 84.9504 27.632 84.3424 27.28C84.0864 27.12 83.9024 26.936 83.7904 26.728C83.6944 26.504 83.6544 26.288 83.6704 26.08C83.7024 25.856 83.7824 25.664 83.9104 25.504C84.0544 25.344 84.2304 25.24 84.4384 25.192C84.6624 25.144 84.9024 25.184 85.1584 25.312C85.7984 25.616 86.3984 25.832 86.9584 25.96C87.5184 26.072 88.0704 26.128 88.6144 26.128C89.3824 26.128 89.9504 26 90.3184 25.744C90.7024 25.472 90.8944 25.12 90.8944 24.688C90.8944 24.32 90.7664 24.04 90.5104 23.848C90.2704 23.64 89.9024 23.488 89.4064 23.392L87.0064 22.936C86.0144 22.744 85.2544 22.384 84.7264 21.856C84.2144 21.312 83.9584 20.616 83.9584 19.768C83.9584 19 84.1664 18.336 84.5824 17.776C85.0144 17.216 85.6064 16.784 86.3584 16.48C87.1104 16.176 87.9744 16.024 88.9504 16.024C89.6544 16.024 90.3104 16.104 90.9184 16.264C91.5424 16.408 92.1424 16.64 92.7184 16.96C92.9584 17.088 93.1184 17.256 93.1984 17.464C93.2944 17.672 93.3184 17.888 93.2704 18.112C93.2224 18.32 93.1264 18.512 92.9824 18.688C92.8384 18.848 92.6544 18.952 92.4304 19C92.2224 19.032 91.9824 18.984 91.7104 18.856C91.2144 18.6 90.7344 18.416 90.2704 18.304C89.8224 18.192 89.3904 18.136 88.9744 18.136C88.1904 18.136 87.6064 18.272 87.2224 18.544C86.8544 18.816 86.6704 19.176 86.6704 19.624C86.6704 19.96 86.7824 20.24 87.0064 20.464C87.2304 20.688 87.5744 20.84 88.0384 20.92L90.4384 21.376C91.4784 21.568 92.2624 21.92 92.7904 22.432C93.3344 22.944 93.6064 23.632 93.6064 24.496C93.6064 25.664 93.1504 26.584 92.2384 27.256C91.3264 27.912 90.1104 28.24 88.5904 28.24ZM97.5011 28.168C97.0211 28.168 96.6531 28.024 96.3971 27.736C96.1411 27.448 96.0131 27.048 96.0131 26.536V17.728C96.0131 17.2 96.1411 16.8 96.3971 16.528C96.6531 16.24 97.0211 16.096 97.5011 16.096C97.9811 16.096 98.3491 16.24 98.6051 16.528C98.8771 16.8 99.0131 17.2 99.0131 17.728V26.536C99.0131 27.048 98.8851 27.448 98.6291 27.736C98.3731 28.024 97.9971 28.168 97.5011 28.168ZM97.5011 13.864C96.9411 13.864 96.5011 13.728 96.1811 13.456C95.8771 13.168 95.7251 12.776 95.7251 12.28C95.7251 11.768 95.8771 11.376 96.1811 11.104C96.5011 10.832 96.9411 10.696 97.5011 10.696C98.0771 10.696 98.5171 10.832 98.8211 11.104C99.1251 11.376 99.2771 11.768 99.2771 12.28C99.2771 12.776 99.1251 13.168 98.8211 13.456C98.5171 13.728 98.0771 13.864 97.5011 13.864ZM107.554 28.24C106.322 28.24 105.25 27.992 104.338 27.496C103.426 26.984 102.722 26.264 102.226 25.336C101.73 24.408 101.482 23.32 101.482 22.072C101.482 21.128 101.618 20.288 101.89 19.552C102.178 18.8 102.586 18.168 103.114 17.656C103.642 17.128 104.282 16.728 105.034 16.456C105.786 16.168 106.626 16.024 107.554 16.024C108.082 16.024 108.65 16.096 109.258 16.24C109.882 16.384 110.466 16.624 111.01 16.96C111.266 17.12 111.434 17.312 111.514 17.536C111.594 17.76 111.61 17.992 111.562 18.232C111.514 18.456 111.41 18.656 111.25 18.832C111.106 18.992 110.922 19.096 110.698 19.144C110.474 19.176 110.226 19.12 109.954 18.976C109.602 18.768 109.242 18.616 108.874 18.52C108.506 18.408 108.154 18.352 107.818 18.352C107.29 18.352 106.826 18.44 106.426 18.616C106.026 18.776 105.682 19.016 105.394 19.336C105.122 19.64 104.914 20.024 104.77 20.488C104.626 20.952 104.554 21.488 104.554 22.096C104.554 23.28 104.834 24.216 105.394 24.904C105.97 25.576 106.778 25.912 107.818 25.912C108.154 25.912 108.498 25.864 108.85 25.768C109.218 25.672 109.586 25.52 109.954 25.312C110.226 25.168 110.466 25.12 110.674 25.168C110.898 25.216 111.082 25.328 111.226 25.504C111.37 25.664 111.458 25.864 111.49 26.104C111.522 26.328 111.49 26.552 111.394 26.776C111.314 27 111.154 27.184 110.914 27.328C110.386 27.648 109.826 27.88 109.234 28.024C108.642 28.168 108.082 28.24 107.554 28.24Z" fill="white"/>
<path d="M115.323 28.192C114.827 28.192 114.435 28.056 114.147 27.784C113.875 27.496 113.739 27.088 113.739 26.56V12.712C113.739 12.184 113.875 11.784 114.147 11.512C114.435 11.224 114.843 11.08 115.371 11.08H123.747C124.163 11.08 124.475 11.184 124.683 11.392C124.891 11.6 124.995 11.896 124.995 12.28C124.995 12.68 124.891 12.992 124.683 13.216C124.475 13.424 124.163 13.528 123.747 13.528H116.811V18.304H123.243C123.643 18.304 123.947 18.408 124.155 18.616C124.379 18.824 124.491 19.12 124.491 19.504C124.491 19.904 124.379 20.216 124.155 20.44C123.947 20.648 123.643 20.752 123.243 20.752H116.811V26.56C116.811 27.648 116.315 28.192 115.323 28.192ZM131.896 28.24C130.568 28.24 129.568 27.864 128.896 27.112C128.224 26.344 127.888 25.224 127.888 23.752V12.4C127.888 11.904 128.016 11.528 128.272 11.272C128.528 11.016 128.896 10.888 129.376 10.888C129.856 10.888 130.224 11.016 130.48 11.272C130.752 11.528 130.888 11.904 130.888 12.4V23.608C130.888 24.344 131.04 24.888 131.344 25.24C131.664 25.592 132.112 25.768 132.688 25.768C132.816 25.768 132.936 25.768 133.048 25.768C133.16 25.752 133.272 25.736 133.384 25.72C133.608 25.688 133.76 25.752 133.84 25.912C133.92 26.056 133.96 26.36 133.96 26.824C133.96 27.224 133.88 27.536 133.72 27.76C133.56 27.984 133.296 28.12 132.928 28.168C132.768 28.184 132.6 28.2 132.424 28.216C132.248 28.232 132.072 28.24 131.896 28.24ZM140.787 28.24C139.571 28.24 138.515 27.992 137.619 27.496C136.723 27 136.027 26.296 135.531 25.384C135.035 24.456 134.787 23.368 134.787 22.12C134.787 21.176 134.923 20.336 135.195 19.6C135.483 18.848 135.891 18.208 136.419 17.68C136.947 17.136 137.579 16.728 138.315 16.456C139.051 16.168 139.875 16.024 140.787 16.024C142.003 16.024 143.059 16.272 143.955 16.768C144.851 17.264 145.547 17.968 146.043 18.88C146.539 19.792 146.787 20.872 146.787 22.12C146.787 23.064 146.643 23.912 146.355 24.664C146.083 25.416 145.683 26.064 145.155 26.608C144.627 27.136 143.995 27.544 143.259 27.832C142.523 28.104 141.699 28.24 140.787 28.24ZM140.787 25.96C141.379 25.96 141.899 25.816 142.347 25.528C142.795 25.24 143.139 24.816 143.379 24.256C143.635 23.68 143.763 22.968 143.763 22.12C143.763 20.84 143.491 19.888 142.947 19.264C142.403 18.624 141.683 18.304 140.787 18.304C140.195 18.304 139.675 18.448 139.227 18.736C138.779 19.008 138.427 19.432 138.171 20.008C137.931 20.568 137.811 21.272 137.811 22.12C137.811 23.384 138.083 24.344 138.627 25C139.171 25.64 139.891 25.96 140.787 25.96ZM153.565 28.192C153.165 28.192 152.821 28.096 152.533 27.904C152.245 27.696 152.013 27.376 151.837 26.944L148.357 18.064C148.213 17.68 148.165 17.344 148.213 17.056C148.277 16.752 148.429 16.512 148.669 16.336C148.909 16.16 149.229 16.072 149.629 16.072C149.981 16.072 150.269 16.16 150.493 16.336C150.717 16.496 150.909 16.808 151.069 17.272L153.973 25.264H153.421L156.421 17.08C156.549 16.728 156.717 16.472 156.925 16.312C157.149 16.152 157.437 16.072 157.789 16.072C158.141 16.072 158.429 16.16 158.653 16.336C158.877 16.496 159.045 16.744 159.157 17.08L162.109 25.264H161.605L164.533 17.2C164.693 16.768 164.893 16.472 165.133 16.312C165.389 16.152 165.669 16.072 165.973 16.072C166.357 16.072 166.653 16.168 166.861 16.36C167.069 16.552 167.189 16.8 167.221 17.104C167.253 17.392 167.197 17.712 167.053 18.064L163.597 26.944C163.437 27.36 163.205 27.672 162.901 27.88C162.613 28.088 162.269 28.192 161.869 28.192C161.469 28.192 161.117 28.088 160.813 27.88C160.525 27.672 160.301 27.36 160.141 26.944L156.997 18.616H158.365L155.293 26.92C155.133 27.352 154.909 27.672 154.621 27.88C154.333 28.088 153.981 28.192 153.565 28.192Z" fill="#00B37E"/>
</svg>
