<svg width="162" height="32" viewBox="0 0 162 32" fill="none" xmlns="http://www.w3.org/2000/svg">
<path d="M37.288 24.192C36.84 24.192 36.496 24.064 36.256 23.808C36.016 23.552 35.896 23.2 35.896 22.752V8.328C35.896 7.864 36.024 7.512 36.28 7.272C36.536 7.016 36.888 6.888 37.336 6.888C37.736 6.888 38.048 6.968 38.272 7.128C38.512 7.272 38.728 7.528 38.92 7.896L44.848 18.864H44.08L50.008 7.896C50.2 7.528 50.408 7.272 50.632 7.128C50.856 6.968 51.168 6.888 51.568 6.888C52.016 6.888 52.36 7.016 52.6 7.272C52.84 7.512 52.96 7.864 52.96 8.328V22.752C52.96 23.2 52.84 23.552 52.6 23.808C52.376 24.064 52.032 24.192 51.568 24.192C51.12 24.192 50.776 24.064 50.536 23.808C50.296 23.552 50.176 23.2 50.176 22.752V11.64H50.704L45.664 20.832C45.504 21.104 45.336 21.304 45.16 21.432C44.984 21.56 44.744 21.624 44.44 21.624C44.136 21.624 43.888 21.56 43.696 21.432C43.504 21.288 43.336 21.088 43.192 20.832L38.104 11.616H38.68V22.752C38.68 23.2 38.56 23.552 38.32 23.808C38.096 24.064 37.752 24.192 37.288 24.192ZM60.6439 24.24C59.6679 24.24 58.8599 24.064 58.2199 23.712C57.5799 23.344 57.0999 22.8 56.7799 22.08C56.4759 21.36 56.3239 20.464 56.3239 19.392V13.584C56.3239 13.072 56.4519 12.696 56.7079 12.456C56.9639 12.2 57.3319 12.072 57.8119 12.072C58.2919 12.072 58.6599 12.2 58.9159 12.456C59.1879 12.696 59.3239 13.072 59.3239 13.584V19.44C59.3239 20.272 59.4919 20.888 59.8279 21.288C60.1639 21.688 60.6999 21.888 61.4359 21.888C62.2359 21.888 62.8919 21.616 63.4039 21.072C63.9159 20.512 64.1719 19.776 64.1719 18.864V13.584C64.1719 13.072 64.2999 12.696 64.5559 12.456C64.8119 12.2 65.1799 12.072 65.6599 12.072C66.1399 12.072 66.5079 12.2 66.7639 12.456C67.0359 12.696 67.1719 13.072 67.1719 13.584V22.656C67.1719 23.68 66.6839 24.192 65.7079 24.192C65.2439 24.192 64.8839 24.064 64.6279 23.808C64.3719 23.536 64.2439 23.152 64.2439 22.656V20.832L64.5799 21.552C64.2439 22.416 63.7319 23.08 63.0439 23.544C62.3719 24.008 61.5719 24.24 60.6439 24.24ZM74.5904 24.24C73.9024 24.24 73.1744 24.168 72.4064 24.024C71.6384 23.88 70.9504 23.632 70.3424 23.28C70.0864 23.12 69.9024 22.936 69.7904 22.728C69.6944 22.504 69.6544 22.288 69.6704 22.08C69.7024 21.856 69.7824 21.664 69.9104 21.504C70.0544 21.344 70.2304 21.24 70.4384 21.192C70.6624 21.144 70.9024 21.184 71.1584 21.312C71.7984 21.616 72.3984 21.832 72.9584 21.96C73.5184 22.072 74.0704 22.128 74.6144 22.128C75.3824 22.128 75.9504 22 76.3184 21.744C76.7024 21.472 76.8944 21.12 76.8944 20.688C76.8944 20.32 76.7664 20.04 76.5104 19.848C76.2704 19.64 75.9024 19.488 75.4064 19.392L73.0064 18.936C72.0144 18.744 71.2544 18.384 70.7264 17.856C70.2144 17.312 69.9584 16.616 69.9584 15.768C69.9584 15 70.1664 14.336 70.5824 13.776C71.0144 13.216 71.6064 12.784 72.3584 12.48C73.1104 12.176 73.9744 12.024 74.9504 12.024C75.6544 12.024 76.3104 12.104 76.9184 12.264C77.5424 12.408 78.1424 12.64 78.7184 12.96C78.9584 13.088 79.1184 13.256 79.1984 13.464C79.2944 13.672 79.3184 13.888 79.2704 14.112C79.2224 14.32 79.1264 14.512 78.9824 14.688C78.8384 14.848 78.6544 14.952 78.4304 15C78.2224 15.032 77.9824 14.984 77.7104 14.856C77.2144 14.6 76.7344 14.416 76.2704 14.304C75.8224 14.192 75.3904 14.136 74.9744 14.136C74.1904 14.136 73.6064 14.272 73.2224 14.544C72.8544 14.816 72.6704 15.176 72.6704 15.624C72.6704 15.96 72.7824 16.24 73.0064 16.464C73.2304 16.688 73.5744 16.84 74.0384 16.92L76.4384 17.376C77.4784 17.568 78.2624 17.92 78.7904 18.432C79.3344 18.944 79.6064 19.632 79.6064 20.496C79.6064 21.664 79.1504 22.584 78.2384 23.256C77.3264 23.912 76.1104 24.24 74.5904 24.24ZM83.5011 24.168C83.0211 24.168 82.6531 24.024 82.3971 23.736C82.1411 23.448 82.0131 23.048 82.0131 22.536V13.728C82.0131 13.2 82.1411 12.8 82.3971 12.528C82.6531 12.24 83.0211 12.096 83.5011 12.096C83.9811 12.096 84.3491 12.24 84.6051 12.528C84.8771 12.8 85.0131 13.2 85.0131 13.728V22.536C85.0131 23.048 84.8851 23.448 84.6291 23.736C84.3731 24.024 83.9971 24.168 83.5011 24.168ZM83.5011 9.864C82.9411 9.864 82.5011 9.728 82.1811 9.456C81.8771 9.168 81.7251 8.776 81.7251 8.28C81.7251 7.768 81.8771 7.376 82.1811 7.104C82.5011 6.832 82.9411 6.696 83.5011 6.696C84.0771 6.696 84.5171 6.832 84.8211 7.104C85.1251 7.376 85.2771 7.768 85.2771 8.28C85.2771 8.776 85.1251 9.168 84.8211 9.456C84.5171 9.728 84.0771 9.864 83.5011 9.864ZM93.5543 24.24C92.3223 24.24 91.2503 23.992 90.3383 23.496C89.4263 22.984 88.7223 22.264 88.2263 21.336C87.7303 20.408 87.4823 19.32 87.4823 18.072C87.4823 17.128 87.6183 16.288 87.8903 15.552C88.1783 14.8 88.5863 14.168 89.1143 13.656C89.6423 13.128 90.2823 12.728 91.0343 12.456C91.7863 12.168 92.6263 12.024 93.5543 12.024C94.0823 12.024 94.6503 12.096 95.2583 12.24C95.8823 12.384 96.4663 12.624 97.0103 12.96C97.2663 13.12 97.4343 13.312 97.5143 13.536C97.5943 13.76 97.6103 13.992 97.5623 14.232C97.5143 14.456 97.4103 14.656 97.2503 14.832C97.1063 14.992 96.9223 15.096 96.6983 15.144C96.4743 15.176 96.2263 15.12 95.9543 14.976C95.6023 14.768 95.2423 14.616 94.8743 14.52C94.5063 14.408 94.1543 14.352 93.8183 14.352C93.2903 14.352 92.8263 14.44 92.4263 14.616C92.0263 14.776 91.6823 15.016 91.3943 15.336C91.1223 15.64 90.9143 16.024 90.7703 16.488C90.6263 16.952 90.5543 17.488 90.5543 18.096C90.5543 19.28 90.8343 20.216 91.3943 20.904C91.9703 21.576 92.7783 21.912 93.8183 21.912C94.1543 21.912 94.4983 21.864 94.8503 21.768C95.2183 21.672 95.5863 21.52 95.9543 21.312C96.2263 21.168 96.4663 21.12 96.6743 21.168C96.8983 21.216 97.0823 21.328 97.2263 21.504C97.3703 21.664 97.4583 21.864 97.4903 22.104C97.5223 22.328 97.4903 22.552 97.3943 22.776C97.3143 23 97.1543 23.184 96.9143 23.328C96.3863 23.648 95.8263 23.88 95.2343 24.024C94.6423 24.168 94.0823 24.24 93.5543 24.24Z" fill="white"/>
<path d="M101.323 24.192C100.827 24.192 100.435 24.056 100.147 23.784C99.8746 23.496 99.7386 23.088 99.7386 22.56V8.712C99.7386 8.184 99.8746 7.784 100.147 7.512C100.435 7.224 100.843 7.08 101.371 7.08H109.747C110.163 7.08 110.475 7.184 110.683 7.392C110.891 7.6 110.995 7.896 110.995 8.28C110.995 8.68 110.891 8.992 110.683 9.216C110.475 9.424 110.163 9.528 109.747 9.528H102.811V14.304H109.243C109.643 14.304 109.947 14.408 110.155 14.616C110.379 14.824 110.491 15.12 110.491 15.504C110.491 15.904 110.379 16.216 110.155 16.44C109.947 16.648 109.643 16.752 109.243 16.752H102.811V22.56C102.811 23.648 102.315 24.192 101.323 24.192ZM117.896 24.24C116.568 24.24 115.568 23.864 114.896 23.112C114.224 22.344 113.888 21.224 113.888 19.752V8.4C113.888 7.904 114.016 7.528 114.272 7.272C114.528 7.016 114.896 6.888 115.376 6.888C115.856 6.888 116.224 7.016 116.48 7.272C116.752 7.528 116.888 7.904 116.888 8.4V19.608C116.888 20.344 117.04 20.888 117.344 21.24C117.664 21.592 118.112 21.768 118.688 21.768C118.816 21.768 118.936 21.768 119.048 21.768C119.16 21.752 119.272 21.736 119.384 21.72C119.608 21.688 119.76 21.752 119.84 21.912C119.92 22.056 119.96 22.36 119.96 22.824C119.96 23.224 119.88 23.536 119.72 23.76C119.56 23.984 119.296 24.12 118.928 24.168C118.768 24.184 118.6 24.2 118.424 24.216C118.248 24.232 118.072 24.24 117.896 24.24ZM126.787 24.24C125.571 24.24 124.515 23.992 123.619 23.496C122.723 23 122.027 22.296 121.531 21.384C121.035 20.456 120.787 19.368 120.787 18.12C120.787 17.176 120.923 16.336 121.195 15.6C121.483 14.848 121.891 14.208 122.419 13.68C122.947 13.136 123.579 12.728 124.315 12.456C125.051 12.168 125.875 12.024 126.787 12.024C128.003 12.024 129.059 12.272 129.955 12.768C130.851 13.264 131.547 13.968 132.043 14.88C132.539 15.792 132.787 16.872 132.787 18.12C132.787 19.064 132.643 19.912 132.355 20.664C132.083 21.416 131.683 22.064 131.155 22.608C130.627 23.136 129.995 23.544 129.259 23.832C128.523 24.104 127.699 24.24 126.787 24.24ZM126.787 21.96C127.379 21.96 127.899 21.816 128.347 21.528C128.795 21.24 129.139 20.816 129.379 20.256C129.635 19.68 129.763 18.968 129.763 18.12C129.763 16.84 129.491 15.888 128.947 15.264C128.403 14.624 127.683 14.304 126.787 14.304C126.195 14.304 125.675 14.448 125.227 14.736C124.779 15.008 124.427 15.432 124.171 16.008C123.931 16.568 123.811 17.272 123.811 18.12C123.811 19.384 124.083 20.344 124.627 21C125.171 21.64 125.891 21.96 126.787 21.96ZM139.565 24.192C139.165 24.192 138.821 24.096 138.533 23.904C138.245 23.696 138.013 23.376 137.837 22.944L134.357 14.064C134.213 13.68 134.165 13.344 134.213 13.056C134.277 12.752 134.429 12.512 134.669 12.336C134.909 12.16 135.229 12.072 135.629 12.072C135.981 12.072 136.269 12.16 136.493 12.336C136.717 12.496 136.909 12.808 137.069 13.272L139.973 21.264H139.421L142.421 13.08C142.549 12.728 142.717 12.472 142.925 12.312C143.149 12.152 143.437 12.072 143.789 12.072C144.141 12.072 144.429 12.16 144.653 12.336C144.877 12.496 145.045 12.744 145.157 13.08L148.109 21.264H147.605L150.533 13.2C150.693 12.768 150.893 12.472 151.133 12.312C151.389 12.152 151.669 12.072 151.973 12.072C152.357 12.072 152.653 12.168 152.861 12.36C153.069 12.552 153.189 12.8 153.221 13.104C153.253 13.392 153.197 13.712 153.053 14.064L149.597 22.944C149.437 23.36 149.205 23.672 148.901 23.88C148.613 24.088 148.269 24.192 147.869 24.192C147.469 24.192 147.117 24.088 146.813 23.88C146.525 23.672 146.301 23.36 146.141 22.944L142.997 14.616H144.365L141.293 22.92C141.133 23.352 140.909 23.672 140.621 23.88C140.333 24.088 139.981 24.192 139.565 24.192Z" fill="#00B37E"/>
<path d="M28 25H27V5C27 4.73478 26.8946 4.48043 26.7071 4.29289C26.5196 4.10536 26.2652 4 26 4H19C18.7348 4 18.4804 4.10536 18.2929 4.29289C18.1054 4.48043 18 4.73478 18 5V10H12C11.7348 10 11.4804 10.1054 11.2929 10.2929C11.1054 10.4804 11 10.7348 11 11V16H6C5.73478 16 5.48043 16.1054 5.29289 16.2929C5.10536 16.4804 5 16.7348 5 17V25H4C3.73478 25 3.48043 25.1054 3.29289 25.2929C3.10536 25.4804 3 25.7348 3 26C3 26.2652 3.10536 26.5196 3.29289 26.7071C3.48043 26.8946 3.73478 27 4 27H28C28.2652 27 28.5196 26.8946 28.7071 26.7071C28.8946 26.5196 29 26.2652 29 26C29 25.7348 28.8946 25.4804 28.7071 25.2929C28.5196 25.1054 28.2652 25 28 25ZM20 6H25V25H20V6ZM13 12H18V25H13V12ZM7 18H11V25H7V18Z" fill="#00B37E"/>
</svg>
