<svg width="24" height="24" viewBox="0 0 24 24" fill="none" xmlns="http://www.w3.org/2000/svg">
<path d="M11.9998 0C5.3728 0 0 5.37255 0 11.9998C0 18.627 5.3728 24 12 24C18.6272 24 24 18.6277 24 11.9998C24 5.37181 18.6277 0 11.9998 0ZM17.5029 17.3074C17.4518 17.3913 17.3846 17.4644 17.3052 17.5224C17.2258 17.5803 17.1358 17.6221 17.0402 17.6452C16.9447 17.6683 16.8455 17.6724 16.7484 17.6571C16.6513 17.6419 16.5581 17.6076 16.4743 17.5563C13.6566 15.8346 10.1095 15.4449 5.93261 16.4003C5.83637 16.4236 5.73645 16.4275 5.63867 16.4119C5.54088 16.3963 5.44717 16.3614 5.36298 16.3093C5.27878 16.2572 5.20578 16.1888 5.14821 16.1083C5.09064 16.0277 5.04964 15.9365 5.0276 15.84C5.00556 15.7434 5.00292 15.6435 5.01983 15.5459C5.03674 15.4483 5.07285 15.3551 5.12609 15.2716C5.17932 15.1881 5.24861 15.116 5.32994 15.0595C5.41126 15.003 5.503 14.9632 5.59982 14.9424C10.171 13.8969 14.0922 14.3457 17.255 16.2785C17.3389 16.3298 17.4118 16.397 17.4697 16.4765C17.5275 16.5559 17.5692 16.646 17.5922 16.7416C17.6152 16.8371 17.6192 16.9363 17.6039 17.0333C17.5885 17.1304 17.5542 17.2235 17.5029 17.3074ZM18.9718 14.0403C18.9076 14.1451 18.8234 14.2363 18.7239 14.3085C18.6244 14.3808 18.5117 14.4327 18.3921 14.4613C18.2726 14.4899 18.1485 14.4946 18.0271 14.4752C17.9057 14.4558 17.7894 14.4126 17.6847 14.3482C14.4601 12.366 9.54333 11.7917 5.72747 12.9499C5.60993 12.9856 5.48651 12.9978 5.36425 12.9858C5.24199 12.9738 5.1233 12.9379 5.01493 12.88C4.90657 12.8222 4.81067 12.7435 4.73269 12.6486C4.65472 12.5537 4.59621 12.4443 4.56051 12.3268C4.5248 12.2092 4.51259 12.0858 4.52458 11.9635C4.53657 11.8413 4.57253 11.7226 4.63039 11.6142C4.68826 11.5059 4.7669 11.41 4.86183 11.332C4.95676 11.254 5.06611 11.1955 5.18365 11.1598C9.54185 9.83848 14.9594 10.478 18.6636 12.7541C18.7683 12.8183 18.8594 12.9025 18.9316 13.0018C19.0038 13.1012 19.0557 13.2139 19.0843 13.3333C19.1129 13.4528 19.1177 13.5767 19.0984 13.698C19.0791 13.8193 19.0361 13.9356 18.9718 14.0403ZM19.098 10.6379C15.2297 8.34058 8.84947 8.12905 5.15684 9.25014C5.01561 9.29361 4.86718 9.30877 4.72008 9.29473C4.57298 9.28069 4.43009 9.23775 4.29963 9.16835C4.16917 9.09896 4.05369 9.00448 3.95983 8.89035C3.86597 8.77621 3.79557 8.64467 3.75268 8.50326C3.70979 8.36185 3.69524 8.21336 3.70988 8.06632C3.72451 7.91927 3.76804 7.77657 3.83797 7.64639C3.9079 7.51621 4.00284 7.40112 4.11736 7.30773C4.23187 7.21433 4.36371 7.14447 4.50529 7.10216C8.7442 5.81528 15.7908 6.06395 20.2427 8.70706C20.4987 8.85895 20.6839 9.10633 20.7575 9.39476C20.8311 9.68319 20.7871 9.98905 20.6352 10.2451C20.4833 10.5011 20.236 10.6863 19.9475 10.7599C19.6591 10.8335 19.3532 10.7895 19.0972 10.6376L19.098 10.6379Z" fill="white"/>
</svg>
